# xmcd
#
# Track frame offsets: 
#        150
#        20431
#        42280
#        57832
#        75518
#        100386
#        106937
#        128520
#        145416
#        161159
#        166406
#        190796
#
# Disc length: 2706 seconds
#
# Revision: 2
# Processed by: cddbd v1.5.2PL0 Copyright (c) Steve Scherf et al.
# Submitted via: ExactAudioCopyFreeDBPlugin 1.0
#
DISCID=970a900c
DTITLE=Пикник - Мракобесие и джаз
DYEAR=2007
DGENRE=Rock
TTITLE0=Из мышеловки
TTITLE1=От Кореи до Карелии
TTITLE2=Падший ангел - сын греха
TTITLE3=Мракобесие и джаз
TTITLE4=На луче...
TTITLE5=Разбойники
TTITLE6=Заратустра
TTITLE7=Герр Захер Мозох
TTITLE8=В развороченном раю
TTITLE9=Эхо (от луча)
TTITLE10=Ихтиандр
TTITLE11=Coda
EXTD=
EXTT0=
EXTT1=
EXTT2=
EXTT3=
EXTT4=
EXTT5=
EXTT6=
EXTT7=
EXTT8=
EXTT9=
EXTT10=
EXTT11=
PLAYORDER=
